<svg xmlns="http://www.w3.org/2000/svg" viewBox="0 0 160 48" role="img" aria-labelledby="logoTitle">
  <title id="logoTitle">Library Logo</title>
  <rect x="4" y="4" width="40" height="40" rx="10" fill="#2563eb"/>
  <path d="M14 14h14c4.8 0 8 2.9 8 7.4V35H20.5c-2.9 0-5.5 1.5-6.5 3.8V14z" fill="#ffffff"/>
  <path d="M20.5 35H36V21.4c0-4.5-3.2-7.4-8-7.4h-7.5V35z" fill="#dbeafe"/>
  <path d="M24 20h7.5" stroke="#2563eb" stroke-width="2.5" stroke-linecap="round"/>
  <path d="M24 25.5h7.5" stroke="#2563eb" stroke-width="2.5" stroke-linecap="round"/>
  <path d="M24 31h5.5" stroke="#2563eb" stroke-width="2.5" stroke-linecap="round"/>
  <path d="M56 14h9.4c3.8 0 6 2 6 5.5V34H60V20h-4z" fill="#f8fafc"/>
  <path d="M74.5 14h8.7c7.6 0 12.3 4.2 12.3 10.5S90.8 35 83.2 35h-8.7zm6 5v11h2.4c4.1 0 6.6-2.1 6.6-5.5S87 19 82.9 19z" fill="#f8fafc"/>
  <path d="M99.5 14h20v5h-14v3.2h12.8V27h-12.8v3h14.5v5h-20.5z" fill="#f8fafc"/>
  <path d="M123.2 14h6v16h11.8v5h-17.8z" fill="#f8fafc"/>
  <path d="M142.2 14h6v21h-6z" fill="#f8fafc"/>
</svg>
